<svg viewBox="0 0 48 16" xmlns="http://www.w3.org/2000/svg">
<g opacity="0.6">
<path d="M44.6221 12.6593H48V9.63516H44.6221V12.6593ZM35.6418 12.6593L33.1223 3.51648L36.3883 3.51648L38.0679 10.1099H38.6278L40.494 3.51648H43.76L40.0275 16H36.7615L37.788 12.6593L35.6418 12.6593ZM27.7999 12.6593H33.1187V10.2857H30.9725V0.351647L27.7999 0.351647V12.6593ZM19.3084 12.6593H16.1358V3.51648H19.3084L19.3084 4.74725H19.495C19.495 4.74725 20.3349 3.25275 22.3877 3.25275C24.6272 3.25275 26.0269 4.57143 26.0269 7.03297V12.6593H22.8543V7.47253C22.8543 6.41758 22.2011 5.8022 21.1747 5.8022C20.1482 5.8022 19.3084 6.59341 19.3084 7.82418V12.6593ZM7.27839 13.011C2.986 13.011 0 10.022 0 6.50549C0 2.98901 2.986 0 7.27839 0C11.5708 0 14.5568 2.98901 14.5568 6.50549C14.5568 10.022 11.5708 13.011 7.27839 13.011ZM7.27839 2.98901C5.13219 2.98901 3.63919 4.3956 3.63919 6.50549C3.63919 8.61539 5.13219 10.022 7.27839 10.022C9.42458 10.022 10.9176 8.61538 10.9176 6.50549C10.9176 4.3956 9.42458 2.98901 7.27839 2.98901Z" />
<path d="M44.6221 12.6593H48V9.63516H44.6221V12.6593ZM35.6418 12.6593L33.1223 3.51648L36.3883 3.51648L38.0679 10.1099H38.6278L40.494 3.51648H43.76L40.0275 16H36.7615L37.788 12.6593L35.6418 12.6593ZM27.7999 12.6593H33.1187V10.2857H30.9725V0.351647L27.7999 0.351647V12.6593ZM19.3084 12.6593H16.1358V3.51648H19.3084L19.3084 4.74725H19.495C19.495 4.74725 20.3349 3.25275 22.3877 3.25275C24.6272 3.25275 26.0269 4.57143 26.0269 7.03297V12.6593H22.8543V7.47253C22.8543 6.41758 22.2011 5.8022 21.1747 5.8022C20.1482 5.8022 19.3084 6.59341 19.3084 7.82418V12.6593ZM7.27839 13.011C2.986 13.011 0 10.022 0 6.50549C0 2.98901 2.986 0 7.27839 0C11.5708 0 14.5568 2.98901 14.5568 6.50549C14.5568 10.022 11.5708 13.011 7.27839 13.011ZM7.27839 2.98901C5.13219 2.98901 3.63919 4.3956 3.63919 6.50549C3.63919 8.61539 5.13219 10.022 7.27839 10.022C9.42458 10.022 10.9176 8.61538 10.9176 6.50549C10.9176 4.3956 9.42458 2.98901 7.27839 2.98901Z" />
</g>
</svg>
